# xmcd
#
# Track frame offsets:
#	150
#	19755
#	38492
#	60465
#	76482
#	100707
#	119095
#	138332
#	157240
#	175930
#
# Disc length: 2615 seconds
#
# Revision: 1
# Processed by: cddbd v1.5.2PL0 Copyright (c) Steve Scherf et al.
# Submitted via: audiograbber 1.83.01
#
DISCID=7e0a350a
DTITLE=Don Ho and Ngoc Huong - Xa em ky niem
DYEAR=1900
DGENRE=Pop
TTITLE0=Don Ho - Xa em ky niem
TTITLE1=Ngoc Huong - Tinh buon dem mua
TTITLE2=Don Ho and Ngoc Huong - Tinh la
TTITLE3=Don Ho - Trieu doa hoa hong
TTITLE4=Ngoc Huong - Trai tim nguc tu
TTITLE5=Don Ho - Nguoi yeu oi, gia tu
TTITLE6=Ngoc Huong - Mong manh cuoc tinh
TTITLE7=Don Ho and Ngoc Huong - Dung roi xa nhau
TTITLE8=Don Ho - Dem say tinh ai
TTITLE9=Ngoc Huong - Mong sau
EXTD=
EXTT0=
EXTT1=
EXTT2=
EXTT3=
EXTT4=
EXTT5=
EXTT6=
EXTT7=
EXTT8=
EXTT9=
PLAYORDER=
